<?xml version="1.0" standalone="no"?>
<!DOCTYPE svg PUBLIC "-//W3C//DTD SVG 20010904//EN"
 "http://www.w3.org/TR/2001/REC-SVG-20010904/DTD/svg10.dtd">
<svg  version="1.0" xmlns="http://www.w3.org/2000/svg"
 width="111" height="60" viewBox="0 0 595.000000 595.000000"
 preserveAspectRatio="xMidYMid meet">

<g transform="translate(0.000000,595.000000) scale(0.100000,-0.100000)"
fill="#000000" stroke="none">
<path d="M2835 5943 c-557 -37 -1050 -199 -1492 -492 -313 -206 -602 -491
-815 -801 -265 -386 -442 -851 -497 -1305 -42 -340 -37 -542 20 -880 155 -925
756 -1735 1599 -2154 210 -104 383 -170 585 -221 301 -77 462 -94 819 -87 285
5 431 22 647 77 768 196 1424 680 1827 1346 218 362 354 753 408 1175 24 191
16 673 -15 848 -102 586 -355 1105 -742 1528 -401 437 -904 736 -1484 882
-257 65 -618 100 -860 84z m390 -93 c647 -59 1242 -319 1706 -747 470 -434
769 -967 893 -1598 59 -296 62 -698 10 -1015 -151 -910 -741 -1702 -1569
-2110 -292 -143 -559 -226 -889 -276 -162 -25 -523 -29 -696 -10 -373 43 -685
136 -1013 303 -271 138 -498 304 -723 528 -341 339 -590 753 -729 1211 -40
133 -88 359 -106 509 -19 147 -16 522 4 676 87 662 371 1237 836 1699 490 486
1131 779 1821 833 102 8 352 6 455 -3z"/>
<path d="M2581 5787 l-103 -9 6 -30 c3 -17 6 -46 6 -64 0 -24 5 -34 15 -34 22
0 23 -7 39 -169 13 -131 13 -146 -1 -156 -12 -9 -15 -25 -11 -68 3 -31 7 -59
9 -62 3 -2 95 4 205 15 109 11 203 20 207 20 10 0 -2 151 -12 162 -3 4 -32 4
-64 1 -45 -5 -57 -9 -57 -23 0 -13 -11 -19 -47 -23 -27 -3 -50 -3 -52 -1 -2 2
-11 71 -19 154 -14 143 -14 151 3 164 15 11 17 20 9 71 -5 32 -13 59 -19 60
-5 1 -57 -2 -114 -8z"/>
<path d="M3391 5730 c-14 -65 -14 -71 3 -84 13 -9 11 -31 -14 -154 -32 -155
-34 -162 -55 -162 -12 0 -35 -75 -35 -113 0 -18 212 -60 222 -45 15 25 20 106
7 126 -18 29 36 303 62 309 10 3 20 11 23 19 8 22 19 114 13 114 -2 0 -49 9
-102 20 -53 11 -101 20 -105 20 -5 0 -13 -23 -19 -50z"/>
<path d="M1705 5508 c-66 -33 -122 -62 -124 -64 -9 -8 53 -124 66 -124 7 0 13
-10 13 -22 1 -13 7 -86 14 -163 13 -127 13 -141 -2 -153 -15 -11 -14 -17 11
-67 15 -30 31 -55 37 -55 14 0 190 89 190 95 0 12 -53 110 -61 113 -21 8 -5
24 51 52 64 32 84 37 77 18 -2 -7 9 -39 25 -71 l28 -57 100 50 100 50 -30 59
c-22 45 -34 58 -47 55 -24 -6 -269 214 -255 228 14 14 -37 118 -58 117 -8 0
-69 -27 -135 -61z m165 -268 c0 -4 -11 -12 -24 -18 -22 -10 -24 -8 -30 20 -12
59 -8 64 24 33 17 -16 30 -32 30 -35z"/>
<path d="M4211 5460 c-17 -27 -28 -56 -25 -63 6 -18 -238 -212 -268 -212 -24
0 -84 -86 -75 -109 5 -12 161 -106 177 -106 13 0 64 93 63 113 -2 24 10 22 78
-15 57 -32 72 -51 46 -61 -13 -5 -72 -106 -65 -111 25 -21 181 -105 188 -101
5 3 20 26 35 52 22 39 24 51 15 69 -9 16 -7 52 9 160 28 181 29 184 44 178 7
-2 26 18 45 52 18 31 31 58 30 59 -16 12 -253 145 -258 145 -5 0 -22 -22 -39
-50z m43 -268 l-6 -41 -31 16 -31 16 34 28 c18 16 35 27 37 25 2 -2 1 -22 -3
-44z"/>
<path d="M2760 5153 c-745 -76 -1381 -516 -1709 -1180 -98 -198 -153 -366
-192 -589 -34 -187 -33 -521 0 -709 76 -430 264 -806 557 -1114 317 -335 721
-551 1189 -637 139 -25 489 -30 640 -9 777 107 1417 608 1704 1332 101 255
144 489 144 778 0 256 -31 455 -104 677 -235 709 -848 1259 -1574 1411 -66 14
-164 30 -217 36 -90 10 -356 13 -438 4z m550 -138 c214 -39 448 -123 635 -227
262 -146 523 -388 696 -644 159 -236 280 -556 320 -844 17 -123 17 -418 0
-540 -47 -334 -180 -660 -377 -927 -70 -94 -201 -240 -259 -287 l-46 -38 -39
36 c-21 19 -58 45 -80 56 l-41 21 67 71 c77 82 116 159 122 239 8 110 -67 175
-162 139 -37 -14 -56 -49 -68 -127 -11 -75 -25 -108 -57 -137 l-21 -19 0 60
c0 71 -14 153 -42 250 -19 68 -20 74 -4 107 9 19 16 49 16 68 0 31 4 35 59 61
174 80 174 185 1 248 -43 15 -58 25 -50 33 5 5 10 22 10 37 0 22 9 32 53 57
63 36 117 94 117 126 0 31 -32 70 -70 86 -35 15 -35 13 -14 74 27 77 14 181
-44 381 -109 370 -220 641 -344 842 -23 38 -71 131 -108 208 -37 77 -79 154
-94 171 -41 49 -118 94 -214 124 -99 31 -162 60 -183 86 -38 46 -144 68 -187
38 -29 -20 -28 -36 8 -99 28 -48 83 -215 75 -224 -16 -16 -129 -24 -365 -25
-233 -2 -283 -5 -327 -20 -47 -16 -54 -16 -82 -2 -38 20 -64 57 -85 123 -22
67 -57 105 -94 101 -24 -3 -34 -17 -90 -133 -57 -117 -64 -136 -63 -191 0 -33
5 -73 11 -88 9 -24 7 -32 -15 -58 -50 -60 -66 -105 -72 -205 l-6 -94 -55 -52
c-65 -62 -163 -191 -197 -258 -33 -64 -33 -133 -1 -197 39 -78 115 -171 194
-238 75 -64 119 -83 162 -69 17 5 29 -2 57 -34 19 -23 53 -51 76 -62 79 -41
108 8 72 123 -9 32 -10 50 -4 54 20 12 26 -11 38 -144 6 -74 14 -146 17 -161
5 -25 2 -30 -28 -40 -18 -6 -50 -23 -71 -37 -35 -23 -39 -24 -67 -9 -16 8 -53
36 -81 61 -69 61 -95 71 -128 46 -21 -16 -27 -29 -29 -73 -4 -68 9 -114 53
-179 19 -29 35 -53 35 -54 0 -2 -22 -39 -48 -83 -143 -238 -157 -538 -32 -704
63 -84 165 -156 248 -174 30 -6 33 -10 28 -33 -4 -15 -2 -53 4 -85 27 -169
163 -313 312 -333 47 -6 47 -7 54 -51 3 -24 5 -46 2 -48 -2 -2 -44 10 -93 26
-118 39 -334 144 -443 215 -827 536 -1147 1585 -758 2489 101 236 239 439 426
625 316 316 696 507 1144 575 128 20 498 14 626 -10z m-299 -211 c17 -8 51
-31 75 -50 29 -21 81 -45 142 -64 114 -36 107 -31 164 -97 34 -38 53 -72 74
-135 37 -113 62 -166 128 -278 129 -217 218 -435 323 -795 70 -241 77 -307 38
-393 -18 -41 -46 -79 -84 -115 -58 -55 -275 -190 -323 -201 -27 -6 -28 -5 -28
31 l-1 38 -21 -40 c-25 -48 -34 -55 -75 -55 -38 0 -38 -2 -17 75 8 33 19 110
24 170 5 61 12 147 16 193 5 56 4 82 -4 82 -11 0 -18 -51 -32 -267 -10 -159
-27 -216 -88 -292 -42 -52 -140 -117 -265 -176 -86 -41 -277 -109 -284 -102
-1 2 8 53 21 113 14 60 26 118 28 128 2 15 28 26 117 52 129 38 215 75 249
107 30 28 74 113 101 197 13 39 41 212 71 435 28 203 57 390 65 415 9 25 33
65 53 89 34 39 41 42 60 32 11 -6 29 -25 39 -41 17 -30 33 -39 33 -20 0 17
-37 85 -55 100 -12 10 -33 11 -93 4 -43 -5 -76 -13 -74 -19 2 -5 15 -9 30 -7
l27 4 -35 -31 c-19 -17 -37 -30 -41 -31 -11 0 -118 -139 -182 -236 -81 -122
-173 -231 -253 -300 -189 -164 -275 -184 -419 -100 -61 36 -220 195 -280 280
l-49 69 -103 -107 c-57 -59 -122 -132 -144 -161 -40 -54 -64 -129 -39 -123 7
2 14 -2 17 -8 8 -22 -46 -25 -90 -6 -79 36 -235 220 -266 314 -17 52 -4 92 63
191 58 86 121 158 196 221 25 21 39 35 33 31 -10 -5 -13 10 -13 59 l0 65 40
-26 c42 -28 51 -43 25 -43 -8 0 -15 -5 -15 -10 0 -7 13 -8 35 -4 19 3 43 3 52
0 13 -5 4 -13 -34 -31 -28 -13 -57 -33 -63 -46 -27 -50 11 -155 87 -239 42
-46 48 -50 91 -50 l47 0 -38 31 c-62 51 -90 129 -47 129 52 0 109 -56 125
-122 12 -47 65 -34 65 16 0 37 22 72 38 62 15 -9 32 -73 25 -92 -3 -8 5 -18
21 -25 22 -10 31 -9 63 13 59 40 134 119 154 163 10 22 19 61 19 86 0 37 -5
50 -27 72 -36 33 -86 54 -154 63 -98 13 -23 23 182 23 165 1 208 -2 274 -19
92 -23 85 -23 85 -10 0 12 -39 28 -84 36 -17 3 -115 8 -217 11 -168 5 -271 -1
-374 -22 -28 -6 -32 -4 -57 49 -15 30 -39 63 -53 72 -14 9 -25 26 -26 38 -1
19 -2 18 -8 -4 -11 -40 -44 -37 -80 6 l-30 38 10 -40 c6 -21 15 -43 20 -48 13
-15 11 -26 -6 -26 -8 0 -30 14 -50 32 l-36 31 20 -51 19 -52 -33 0 c-47 0 -61
21 -46 69 21 71 135 157 348 263 l122 61 278 2 c211 1 301 6 372 19 161 28
338 2 356 -53 6 -21 16 -26 28 -15 14 14 -68 136 -116 174 -13 11 -60 35 -103
55 -43 20 -94 50 -111 67 -36 35 -53 33 -30 -4 8 -12 22 -48 31 -79 9 -31 25
-68 37 -82 l20 -27 -24 0 c-28 0 -47 37 -73 134 -8 33 -28 83 -44 111 -16 29
-27 55 -23 58 11 12 53 7 84 -9z m-959 -281 c-3 -81 0 -138 7 -151 9 -18 5
-24 -40 -53 -28 -18 -57 -38 -64 -46 -20 -20 -28 -1 -32 81 -5 69 -3 74 51
189 34 72 61 117 69 114 9 -3 11 -38 9 -134z m46 -455 c5 -7 12 -28 14 -46 4
-30 2 -33 -34 -43 -40 -10 -108 -3 -108 12 0 4 17 26 38 49 39 40 71 50 90 28z
m-73 -162 c0 -23 -58 -56 -97 -56 -32 0 -37 19 -10 43 42 38 107 46 107 13z
m195 -417 c18 -29 73 -90 122 -138 48 -47 88 -89 88 -93 0 -9 -195 -10 -228
-2 -26 7 -28 14 -46 146 -11 83 -11 101 1 118 8 11 18 20 22 20 4 0 23 -23 41
-51z m-73 -96 c6 -54 13 -105 14 -113 3 -11 -3 -14 -26 -12 -41 4 -55 21 -71
82 l-13 52 35 44 c20 24 39 44 43 44 4 0 12 -44 18 -97z m-117 -76 c0 -18 11
-78 25 -135 26 -106 30 -142 18 -142 -17 0 -84 55 -107 88 -26 38 -46 84 -46
105 0 19 90 128 100 122 6 -4 10 -21 10 -38z m166 -76 l108 -16 23 -39 c38
-69 71 -187 84 -299 6 -59 9 -110 5 -114 -3 -3 -14 1 -23 9 -33 28 -127 68
-158 68 l-32 0 -11 83 c-6 45 -14 120 -17 167 -10 134 -8 130 -64 130 -42 0
-49 3 -55 23 -11 43 -6 53 13 28 16 -21 34 -27 127 -40z m719 -58 c9 -104 3
-119 -51 -116 -43 3 -77 24 -108 67 -20 28 -21 29 -2 40 10 6 46 30 80 53 33
23 64 42 68 42 3 1 9 -38 13 -86z m76 -258 c94 -52 175 -92 202 -99 34 -8 34
-13 -3 -58 -27 -33 -117 -85 -177 -103 -28 -8 -58 24 -102 105 -39 74 -48 123
-27 155 21 32 51 32 107 0z m-171 -25 c12 -8 11 -10 -6 -10 -27 0 -71 -44 -90
-88 -8 -19 -25 -94 -38 -166 -80 -430 -166 -615 -340 -727 -229 -149 -507
-115 -602 72 -20 41 -24 63 -24 143 0 115 12 178 52 271 47 107 110 198 206
294 94 95 156 132 231 138 75 7 136 -45 161 -138 12 -43 2 -72 -95 -279 -59
-126 -95 -207 -95 -216 0 -2 7 -4 15 -4 14 0 85 136 85 163 0 15 121 234 174
315 63 96 158 196 208 221 46 22 131 28 158 11z m-938 -63 c35 -30 75 -60 91
-68 l27 -15 -59 -63 c-32 -35 -63 -61 -69 -57 -24 15 -72 102 -82 150 -11 54
-1 106 19 106 6 0 38 -24 73 -53z m1916 -151 c13 -13 13 -18 2 -31 -21 -26
-69 -47 -90 -40 -23 7 -28 63 -7 84 15 16 75 8 95 -13z m-414 -173 c80 -39 82
-84 7 -122 -57 -30 -105 -36 -124 -16 -25 24 -23 105 4 139 26 33 45 33 113
-1z m423 -180 c13 -9 23 -24 23 -34 0 -29 -57 -60 -105 -57 -37 3 -40 6 -43
34 -2 19 5 40 19 58 18 23 26 26 53 20 17 -4 41 -13 53 -21z m-442 -155 c55
-25 87 -145 46 -168 -25 -13 -92 -13 -125 0 -23 8 -26 15 -26 61 0 45 4 55 34
85 39 39 36 38 71 22z m498 -156 c40 -120 52 -226 38 -331 -7 -48 -19 -101
-28 -119 -22 -45 -7 -54 25 -14 37 44 80 50 156 21 62 -23 163 -109 151 -129
-10 -16 -184 -134 -257 -174 l-67 -37 -77 81 -77 81 -2 82 c-1 82 -15 137 -35
137 -6 0 -7 -22 -3 -60 7 -68 -10 -167 -38 -222 -73 -142 -301 -261 -411 -213
-13 5 -18 3 -18 -9 0 -9 7 -19 15 -22 8 -4 15 -17 15 -29 0 -20 -8 -25 -50
-34 -80 -17 -81 -17 -74 32 4 23 11 47 16 54 6 7 5 14 -3 19 -7 4 -17 0 -24
-9 -11 -15 -16 -14 -56 12 -96 62 -148 144 -157 246 -5 65 8 133 35 188 8 16
12 31 9 34 -9 10 -45 -74 -55 -133 -14 -78 0 -172 34 -229 l26 -45 -32 0 c-17
0 -70 10 -118 22 l-86 23 -100 100 c-85 85 -110 104 -162 124 -72 27 -116 67
-137 124 -14 41 -14 41 -15 11 -2 -53 36 -95 128 -143 46 -24 104 -63 128 -88
l45 -45 -21 -22 c-12 -12 -21 -31 -21 -42 -1 -19 -1 -19 -12 1 -11 18 -12 18
-18 0 -3 -10 -3 -39 1 -64 10 -57 11 -141 3 -141 -4 0 -24 5 -45 12 -32 9 -39
16 -39 37 0 14 -3 42 -6 61 -6 33 -4 36 30 48 20 7 36 17 36 22 0 6 -11 5 -26
0 -42 -16 -130 -11 -189 11 -132 49 -239 229 -218 367 5 31 6 32 58 32 109 0
270 56 349 121 l38 32 207 3 c283 2 456 28 669 99 115 39 299 124 372 173 25
17 50 29 55 28 6 -1 22 -39 38 -84z m-994 53 c31 -16 41 -33 41 -73 -1 -76
-106 -167 -163 -141 -26 12 -57 71 -57 108 0 91 97 149 179 106z m1318 -104
c-10 -110 -76 -219 -159 -262 -79 -41 -95 -9 -19 38 62 39 96 97 110 186 11
75 23 97 54 97 18 0 19 -5 14 -59z m-1510 -740 c46 -33 64 -52 69 -75 10 -46
41 -102 66 -121 22 -16 20 -17 -47 -11 -38 4 -86 9 -106 12 l-36 6 -6 77 c-4
42 -10 96 -13 120 -8 50 -9 51 73 -8z m129 -49 c6 -4 15 -22 19 -40 4 -19 20
-49 37 -68 36 -41 16 -48 -26 -9 -52 48 -77 149 -30 117z m894 -26 c0 -5 -213
-76 -226 -76 -3 0 20 18 52 40 52 34 66 39 117 40 31 0 57 -2 57 -4z"/>
<path d="M3312 4326 c-10 -39 -44 -86 -62 -86 -3 0 -12 22 -19 50 -15 57 -31
75 -31 33 0 -16 -7 -39 -17 -52 -15 -23 -17 -23 -30 -6 -7 11 -13 26 -13 36 0
9 -9 27 -20 40 l-19 24 -1 -51 c0 -45 -3 -52 -27 -63 -24 -11 -29 -9 -51 14
-31 33 -41 25 -13 -11 l21 -26 -24 -42 c-29 -50 -49 -110 -44 -133 2 -13 15
-3 47 39 46 62 95 98 130 98 25 0 81 -27 81 -39 0 -4 -36 -25 -80 -45 -44 -21
-80 -42 -80 -48 0 -13 32 -2 124 44 43 22 103 43 134 48 61 10 67 14 57 30 -4
6 -20 8 -41 4 l-35 -6 23 37 c14 25 22 54 22 87 0 67 -17 79 -32 24z"/>
<path d="M2500 4109 c1 -19 25 -49 39 -49 17 0 13 13 -14 39 -16 14 -25 18
-25 10z"/>
<path d="M870 4863 l-161 -178 62 -60 62 -60 43 50 c34 38 41 52 32 62 -8 10
-8 17 0 25 17 17 238 -188 234 -218 -2 -16 10 -33 43 -60 l46 -37 25 24 c14
13 49 50 77 82 l50 58 -46 46 c-38 39 -48 44 -61 34 -12 -10 -33 5 -129 91
-112 100 -131 125 -90 121 12 -1 37 15 63 42 l44 45 -60 54 c-32 30 -62 55
-66 56 -4 0 -79 -80 -168 -177z"/>
<path d="M4931 4837 c-17 -46 -31 -89 -31 -96 0 -14 60 -91 71 -91 8 0 65 73
103 131 l16 26 -64 56 -64 57 -31 -83z"/>
<path d="M5231 4378 c-72 -41 -75 -45 -94 -101 l-19 -58 36 -68 c45 -86 45
-105 5 -122 -29 -12 -33 -11 -51 10 -29 36 -34 72 -13 87 10 7 23 15 29 17 12
4 -22 85 -52 124 l-17 22 -50 -27 c-45 -25 -51 -32 -68 -88 l-20 -60 59 -115
59 -114 62 -18 61 -18 79 40 79 39 19 62 18 61 -39 80 -39 81 24 19 c37 30 58
24 82 -23 l22 -43 -31 -24 -30 -25 34 -68 c19 -37 37 -68 39 -68 3 0 28 11 54
25 45 22 51 30 70 86 l20 61 -58 116 -59 117 -61 18 c-33 9 -64 17 -68 17 -5
0 -42 -19 -82 -42z"/>
<path d="M397 4140 l-46 -100 49 -25 c54 -27 76 -31 82 -14 2 7 58 -13 143
-53 105 -49 141 -71 145 -87 3 -14 24 -30 59 -46 30 -14 55 -24 56 -23 7 7 95
201 93 203 -2 2 -27 14 -55 29 -42 21 -56 24 -71 15 -15 -9 -43 0 -155 52
-114 53 -137 67 -133 82 4 15 -7 24 -50 43 -30 13 -58 24 -63 24 -4 0 -28 -45
-54 -100z"/>
<path d="M1577 1323 c-4 -3 -7 -19 -7 -34 0 -42 -319 -473 -360 -488 -17 -5
-30 -16 -30 -23 1 -14 110 -98 128 -98 12 0 22 24 22 52 0 11 32 64 71 118
l72 98 45 -24 c51 -27 119 -32 160 -10 65 34 112 111 112 182 0 67 -32 115
-117 179 -72 55 -84 61 -96 48z m117 -135 c29 -41 16 -92 -45 -170 -36 -44
-77 -61 -110 -44 -13 6 -24 17 -24 24 0 16 143 212 155 212 5 0 16 -10 24 -22z"/>
<path d="M4307 1296 c-35 -13 -177 -113 -177 -125 1 -13 17 -27 42 -36 37 -14
368 -437 368 -471 0 -14 6 -27 14 -30 18 -7 126 73 126 93 0 8 -14 19 -30 25
-20 6 -56 43 -106 106 l-75 95 29 31 c63 66 76 129 43 201 -23 49 -64 89 -113
109 -45 19 -71 19 -121 2z m89 -98 c47 -43 84 -103 84 -136 0 -18 -34 -62 -48
-61 -10 0 -162 197 -162 209 0 12 36 28 63 29 9 1 38 -18 63 -41z"/>
<path d="M1900 1060 c0 -55 -229 -519 -265 -538 -49 -26 -32 -44 110 -115 74
-37 137 -67 140 -67 11 0 76 143 71 156 -9 22 -30 16 -62 -17 -46 -49 -59 -52
-104 -29 -22 11 -40 23 -40 25 0 14 121 245 129 245 18 0 31 -29 29 -61 -2
-28 1 -34 17 -36 16 -2 27 13 58 78 20 45 35 85 31 90 -9 15 -30 10 -49 -11
-19 -21 -50 -27 -59 -11 -8 13 92 221 107 221 6 0 27 -9 46 -21 32 -20 33 -22
27 -68 -5 -40 -3 -50 10 -55 9 -4 18 -5 19 -4 10 11 66 131 63 134 -11 11
-251 124 -264 124 -10 0 -14 -12 -14 -40z"/>
<path d="M3902 1060 c-94 -58 -79 -240 38 -445 106 -186 242 -255 331 -166 77
77 54 234 -64 435 -98 169 -211 233 -305 176z m111 -72 c41 -45 182 -319 213
-415 26 -83 4 -126 -51 -101 -46 21 -148 198 -228 395 -39 96 -42 118 -18 142
29 29 39 27 84 -21z"/>
<path d="M2235 948 c-42 -116 -45 -148 -16 -148 11 0 23 12 31 30 14 34 41 53
63 44 20 -7 -135 -552 -164 -572 -38 -26 -24 -48 43 -67 34 -9 67 -19 74 -22
17 -6 27 32 15 55 -10 18 -3 45 134 520 17 56 24 61 50 36 11 -12 15 -30 13
-58 -3 -35 0 -41 18 -44 17 -2 23 6 37 57 23 81 22 90 -10 96 -67 14 -192 50
-231 67 -52 21 -51 21 -57 6z"/>
<path d="M3611 931 c-30 -9 -56 -22 -58 -28 -2 -6 7 -22 21 -35 17 -16 32 -53
50 -118 14 -52 26 -100 26 -106 0 -10 -50 -27 -84 -28 -5 -1 -22 43 -37 98
-21 72 -27 111 -22 142 6 47 3 50 -43 34 -16 -5 -48 -14 -71 -20 -49 -12 -53
-24 -19 -59 36 -38 169 -522 160 -580 -8 -48 -5 -49 91 -25 70 18 84 39 44 65
-14 10 -30 49 -54 134 -19 66 -35 125 -35 131 0 14 80 38 90 27 5 -4 22 -59
39 -122 25 -88 30 -124 25 -159 l-7 -45 29 7 c85 20 134 38 134 48 0 7 -11 23
-24 37 -34 37 -169 529 -160 584 6 34 5 37 -17 36 -13 -1 -48 -9 -78 -18z"/>
<path d="M3084 822 c-43 -34 -58 -71 -58 -141 0 -87 27 -134 128 -224 76 -69
116 -131 116 -181 0 -40 -27 -85 -55 -92 -47 -12 -81 29 -111 134 -4 16 -33
16 -39 -1 -3 -7 -2 -50 2 -97 l8 -85 81 -2 c70 -2 86 1 115 20 53 36 73 80 73
162 0 94 -24 138 -135 246 -89 86 -109 117 -109 168 0 30 27 61 53 61 20 0 53
-41 67 -86 9 -25 17 -34 34 -34 22 0 23 3 19 53 -2 28 -6 66 -9 83 l-4 30 -78
2 c-59 1 -82 -3 -98 -16z"/>
</g>
</svg>
